<?xml version="1.0" encoding="utf-8"?>
<svg width="416px" height="416px" viewbox="0 0 416 416" version="1.1" xmlns:xlink="http://www.w3.org/1999/xlink" xmlns="http://www.w3.org/2000/svg">
  <defs>
    <linearGradient x1="0.5" y1="0" x2="0.5" y2="1" id="gradient_1">
      <stop offset="0" stop-color="#07B2F6" />
      <stop offset="1" stop-color="#046CEB" />
    </linearGradient>
    <linearGradient x1="0.50000006" y1="0" x2="0.49999994" y2="1" id="gradient_2">
      <stop offset="0" stop-color="#07B3F6" />
      <stop offset="1" stop-color="#046CEB" />
    </linearGradient>
    <path d="M0 0L416 0L416 416L0 416L0 0Z" id="path_1" />
    <clipPath id="mask_1">
      <use xlink:href="#path_1" />
    </clipPath>
  </defs>
  <g id="studiohelperslogocircle">
    <path d="M0 0L416 0L416 416L0 416L0 0Z" id="Background" fill="none" fill-rule="evenodd" stroke="none" />
    <g clip-path="url(#mask_1)">
      <g id="Ellipse">
        <path d="M0 207.953C-1.02481e-06 193.784 1.40824 179.818 4.22472 166.054C6.97067 152.635 11.0111 139.619 16.3461 127.005C21.5833 114.623 27.975 102.847 35.5211 91.6775C42.9938 80.6165 51.4561 70.36 60.908 60.908C70.36 51.4561 80.6165 42.9938 91.6775 35.5211C102.847 27.975 114.623 21.5833 127.005 16.3461C139.619 11.0111 152.635 6.97068 166.054 4.22472C179.818 1.40824 193.784 -1.02481e-06 207.953 0C222.122 -1.02481e-06 236.088 1.40824 249.852 4.22471C263.271 6.97065 276.287 11.0111 288.901 16.3461C301.283 21.5833 313.059 27.975 324.229 35.5211C335.29 42.9937 345.546 51.456 354.998 60.908C364.45 70.3599 372.912 80.6164 380.385 91.6775C387.931 102.847 394.323 114.623 399.56 127.005C404.895 139.619 408.935 152.635 411.681 166.054C414.498 179.818 415.906 193.784 415.906 207.953C415.906 222.122 414.498 236.088 411.681 249.852C408.935 263.271 404.895 276.288 399.56 288.901C394.323 301.283 387.931 313.059 380.385 324.229C372.912 335.29 364.45 345.546 354.998 354.998C345.546 364.45 335.29 372.912 324.229 380.385C313.059 387.931 301.283 394.323 288.901 399.56C276.288 404.895 263.271 408.935 249.852 411.681C236.088 414.498 222.122 415.906 207.953 415.906C193.784 415.906 179.818 414.498 166.054 411.681C152.635 408.935 139.618 404.895 127.005 399.56C114.623 394.323 102.847 387.931 91.6775 380.385C80.6166 372.912 70.3602 364.45 60.908 354.998C51.456 345.546 42.9937 335.29 35.5211 324.229C27.975 313.059 21.5833 301.283 16.3461 288.901C11.0111 276.288 6.97067 263.271 4.22472 249.852C1.40824 236.088 -1.02481e-06 222.122 0 207.953L0 207.953ZM20.1485 207.953C20.1485 233.43 25.0667 257.796 34.903 281.052C39.631 292.23 45.4022 302.863 52.2166 312.949C58.9681 322.943 66.6143 332.21 75.1552 340.751C83.6963 349.292 92.9635 356.938 102.957 363.689C113.043 370.504 123.676 376.275 134.854 381.003C158.11 390.839 182.476 395.757 207.953 395.757C233.43 395.757 257.796 390.839 281.052 381.003C292.23 376.275 302.863 370.504 312.949 363.689C322.943 356.938 332.21 349.292 340.751 340.751C349.292 332.21 356.938 322.943 363.689 312.949C370.504 302.863 376.275 292.23 381.003 281.052C390.839 257.796 395.757 233.43 395.757 207.953C395.757 182.476 390.839 158.11 381.003 134.854C376.275 123.676 370.504 113.043 363.689 102.957C356.938 92.9633 349.292 83.6961 340.751 75.1552C332.21 66.6143 322.943 58.9681 312.949 52.2166C302.863 45.4022 292.23 39.631 281.052 34.903C257.796 25.0667 233.43 20.1485 207.953 20.1485C182.476 20.1485 158.11 25.0667 134.854 34.903C123.676 39.631 113.043 45.4022 102.957 52.2166C92.9633 58.9681 83.6962 66.6143 75.1552 75.1552C66.6143 83.6961 58.9681 92.9633 52.2166 102.957C45.4022 113.043 39.631 123.676 34.903 134.854C25.0667 158.11 20.1485 182.476 20.1485 207.953L20.1485 207.953Z" id="Vector" fill="url(#gradient_1)" fill-rule="evenodd" stroke="none" />
        <path d="M0 197.879C0 88.5934 88.5934 0 197.879 0C307.164 0 395.757 88.5934 395.757 197.879C395.757 307.164 307.164 395.757 197.879 395.757C88.5934 395.757 0 307.164 0 197.879L0 197.879Z" transform="translate(10.074266 10.074267)" id="path_1" fill="#181A1D" fill-rule="evenodd" stroke="none" />
      </g>
      <g id="Group-5" transform="translate(119.58496 46.07666)">
        <path d="M119.823 35.6816L62.0052 1.58291C61.9215 1.5336 61.8373 1.48536 61.7525 1.43819C61.6676 1.39103 61.5822 1.34495 61.4962 1.29996C61.4101 1.25497 61.3236 1.21109 61.2364 1.16831C61.1493 1.12553 61.0616 1.08387 60.9734 1.04332C60.8852 1.00278 60.7965 0.963372 60.7072 0.925089C60.618 0.886815 60.5283 0.84968 60.4381 0.813681C60.3481 0.777694 60.2575 0.742858 60.1664 0.709179C60.0753 0.6755 59.9839 0.642985 59.892 0.611634C59.8001 0.580291 59.7079 0.550121 59.6153 0.521123C59.5226 0.492129 59.4295 0.46432 59.3361 0.437695C59.2428 0.411075 59.1492 0.385647 59.0551 0.361413C58.9611 0.337182 58.8668 0.314153 58.7723 0.292332C58.6777 0.2705 58.5829 0.249881 58.4878 0.230475C58.3926 0.211069 58.2972 0.192877 58.2016 0.175898C58.1061 0.158931 58.0103 0.143178 57.9143 0.128646C57.8183 0.11411 57.7222 0.100804 57.6258 0.0887237C57.5295 0.0766433 57.4331 0.0657967 57.3365 0.0561758C57.2399 0.046559 57.1431 0.038172 57.0463 0.0310189C56.9495 0.0238739 56.8526 0.0179587 56.7557 0.0132733C56.6587 0.00859198 56.5617 0.00514863 56.4647 0.00294325C56.3677 0.000733762 56.2706 -0.000233656 56.1735 4.50915e-05C56.0764 0.000311541 55.9794 0.00181596 55.8823 0.00455834C55.7852 0.00730483 55.6882 0.0112893 55.5913 0.0165117C55.4944 0.0217341 55.3975 0.0281822 55.3008 0.0358683C55.204 0.0435584 55.1073 0.0524824 55.0108 0.0626362C54.9143 0.0727941 54.8179 0.0841777 54.7216 0.0967951C54.6253 0.109413 54.5292 0.123256 54.4333 0.138316C54.3374 0.153377 54.2418 0.169663 54.1463 0.187171C54.0507 0.204675 53.9555 0.223396 53.8606 0.24333C53.7656 0.263273 53.6708 0.284421 53.5764 0.30677C53.4819 0.329123 53.3877 0.352673 53.2937 0.377424C53.1999 0.402188 53.1064 0.428132 53.0131 0.455264C52.92 0.48241 52.8272 0.510731 52.7347 0.540237C52.6422 0.569756 52.5501 0.600439 52.4584 0.63229C52.3667 0.664153 52.2754 0.697172 52.1845 0.731356C52.0937 0.765543 52.0033 0.800887 51.9133 0.837374C51.8234 0.873865 51.7339 0.911501 51.6449 0.950275C51.5559 0.98905 51.4674 1.02895 51.3794 1.06998C51.2914 1.11101 51.204 1.15316 51.117 1.19642C51.0302 1.23968 50.9438 1.28405 50.8581 1.32951C50.7723 1.37498 50.6871 1.42153 50.6026 1.46917C50.518 1.5168 50.434 1.56552 50.3506 1.6153C50.2673 1.66508 50.1846 1.71591 50.1026 1.7678C50.0205 1.81968 49.9391 1.87261 49.8584 1.92658C49.7777 1.98054 49.6978 2.03553 49.6185 2.09153C49.5392 2.14753 49.4606 2.20454 49.3828 2.26255C49.305 2.32056 49.2279 2.37955 49.1515 2.43952C49.0752 2.49949 48.9996 2.56043 48.9249 2.62233C48.8501 2.68424 48.7761 2.74709 48.7028 2.81087C48.6297 2.87467 48.5573 2.93938 48.4858 3.00501C48.4143 3.07065 48.3437 3.13719 48.2738 3.20461C48.204 3.27205 48.135 3.34037 48.0669 3.40956C47.9988 3.47877 47.9316 3.54882 47.8653 3.61973C47.799 3.69064 47.7337 3.76239 47.6692 3.83497C47.6047 3.90755 47.5412 3.98094 47.4786 4.05514C47.416 4.12933 47.3544 4.20431 47.2936 4.28009C47.2329 4.35586 47.1732 4.43239 47.1144 4.50969C47.0558 4.58698 46.9981 4.665 46.9413 4.74377C46.8845 4.82254 46.8288 4.90202 46.7741 4.98221C46.7194 5.0624 46.6657 5.14328 46.613 5.22484C46.5604 5.30639 46.5088 5.3886 46.4583 5.47148C46.4077 5.55436 46.3582 5.63787 46.3097 5.722C46.2614 5.80614 46.214 5.89088 46.1677 5.97622C46.1214 6.06157 46.0763 6.14749 46.0322 6.23398L12.1735 72.6856C12.1304 72.7701 12.0883 72.8552 12.0473 72.9409C12.0064 73.0265 11.9665 73.1127 11.9276 73.1994C11.8888 73.286 11.8511 73.3731 11.8144 73.4606C11.7777 73.5482 11.7422 73.6362 11.7077 73.7247C11.6733 73.8132 11.6399 73.9021 11.6077 73.9913C11.5754 74.0806 11.5443 74.1703 11.5143 74.2604C11.4843 74.3505 11.4554 74.4409 11.4277 74.5317C11.3999 74.6225 11.3733 74.7136 11.3478 74.8051C11.3223 74.8966 11.298 74.9884 11.2748 75.0804C11.2516 75.1725 11.2296 75.2648 11.2087 75.3574C11.1878 75.45 11.1681 75.5429 11.1495 75.636C11.1309 75.7291 11.1136 75.8224 11.0973 75.9159C11.0811 76.0095 11.066 76.1033 11.0521 76.1972C11.0382 76.2911 11.0255 76.3852 11.0139 76.4794C11.0024 76.5736 10.992 76.668 10.9828 76.7626C10.9736 76.8571 10.9656 76.9516 10.9587 77.0463C10.9519 77.141 10.9462 77.2358 10.9417 77.3306C10.9373 77.4255 10.934 77.5203 10.9319 77.6153C10.9298 77.7102 10.9288 77.8051 10.9291 77.9C10.9293 77.9949 10.9308 78.0899 10.9334 78.1848C10.936 78.2797 10.9399 78.3746 10.9448 78.4694C10.9498 78.5642 10.956 78.6589 10.9634 78.7535C10.9707 78.8482 10.9793 78.9427 10.989 79.0372C10.9987 79.1317 11.0096 79.226 11.0216 79.3201C11.0337 79.4143 11.047 79.5083 11.0614 79.6022C11.0758 79.696 11.0914 79.7896 11.1081 79.883C11.1249 79.9765 11.1428 80.0698 11.1618 80.1628C11.1809 80.2558 11.2012 80.3485 11.2225 80.441C11.2439 80.5335 11.2665 80.6258 11.2901 80.7177C11.3138 80.8096 11.3387 80.9012 11.3646 80.9926C11.3906 81.0839 11.4177 81.1749 11.446 81.2655C11.4742 81.3561 11.5036 81.4464 11.5341 81.5363C11.5646 81.6262 11.5962 81.7158 11.6289 81.805C11.6617 81.8941 11.6955 81.9827 11.7304 82.071C11.7654 82.1592 11.8014 82.247 11.8386 82.3344C11.8757 82.4219 11.9139 82.5088 11.9532 82.5952C11.9925 82.6816 12.0329 82.7675 12.0743 82.8529C12.1158 82.9384 12.1583 83.0233 12.2018 83.1076C12.2454 83.192 12.29 83.2758 12.3357 83.3591C12.3813 83.4423 12.428 83.5249 12.4757 83.607C12.5234 83.6891 12.5722 83.7705 12.6219 83.8514C12.6716 83.9322 12.7224 84.0125 12.7741 84.0921C12.8259 84.1717 12.8786 84.2506 12.9323 84.3289C12.9861 84.4072 13.0407 84.4849 13.0964 84.5618C13.152 84.6386 13.2087 84.7148 13.2662 84.7904C13.3238 84.8659 13.3823 84.9407 13.4417 85.0147C13.5011 85.0888 13.5614 85.1621 13.6226 85.2346C13.6839 85.3072 13.746 85.3789 13.8091 85.45C13.8721 85.5209 13.936 85.591 14.0009 85.6604C14.0656 85.7298 14.1313 85.7984 14.1978 85.8662C14.2643 85.934 14.3317 86.0009 14.3998 86.067C14.468 86.133 14.537 86.1982 14.6068 86.2626C14.6766 86.327 14.7471 86.3905 14.8185 86.4531C14.8899 86.5157 14.9621 86.5774 15.035 86.6382C15.1079 86.699 15.1816 86.7588 15.256 86.8178C15.3304 86.8768 15.4055 86.9348 15.4814 86.9919C15.5572 87.049 15.6338 87.1051 15.7111 87.1603C15.7884 87.2155 15.8663 87.2696 15.9449 87.3228C16.0236 87.3761 16.1028 87.4284 16.1827 87.4796C16.2626 87.5309 16.3431 87.5811 16.4243 87.6303C16.5055 87.6795 16.5872 87.7278 16.6696 87.7751C16.752 87.8223 16.835 87.8685 16.9185 87.9136C17.0021 87.9587 17.0862 88.0028 17.1708 88.0458C17.2554 88.0888 17.3405 88.1308 17.4261 88.1717L78.2721 117.23L88.1723 122.176C74.1338 152.561 58.9105 184.686 45.9321 210.158C26.589 248.12 12.2324 271.306 3.23471 284.479C-2.54333 292.938 -0.48475 303.083 8.6429 307.734L11.0793 308.975C20.2225 313.634 29.738 309.351 33.2163 299.698C38.736 284.378 49.3053 258.565 68.8888 220.131C81.7593 194.872 98.5232 164.16 114.601 135.38L124.305 140.227L183.251 172.595C183.334 172.641 183.418 172.686 183.502 172.73C183.586 172.773 183.671 172.815 183.756 172.857C183.842 172.898 183.928 172.939 184.014 172.978C184.101 173.018 184.188 173.056 184.275 173.092C184.362 173.13 184.45 173.166 184.538 173.201C184.626 173.236 184.714 173.27 184.804 173.303C184.892 173.335 184.982 173.367 185.072 173.397C185.162 173.428 185.252 173.457 185.342 173.486C185.433 173.515 185.524 173.542 185.615 173.568C185.706 173.594 185.798 173.618 185.89 173.642C185.982 173.666 186.074 173.689 186.166 173.71C186.259 173.732 186.352 173.752 186.444 173.771C186.537 173.789 186.631 173.807 186.725 173.824C186.818 173.841 186.911 173.857 187.005 173.871C187.098 173.886 187.192 173.899 187.286 173.912C187.38 173.923 187.475 173.934 187.569 173.944C187.663 173.954 187.758 173.962 187.853 173.969C187.947 173.977 188.041 173.984 188.136 173.988C188.231 173.994 188.326 173.998 188.421 174C188.516 174.003 188.611 174.004 188.706 174.004C188.801 174.005 188.896 174.005 188.991 174.003C189.086 174 189.18 173.997 189.275 173.992C189.369 173.988 189.464 173.982 189.559 173.976C189.654 173.969 189.748 173.961 189.842 173.952C189.937 173.943 190.032 173.933 190.126 173.921C190.22 173.909 190.314 173.897 190.408 173.883C190.502 173.87 190.595 173.855 190.688 173.839C190.783 173.823 190.876 173.806 190.968 173.787C191.061 173.768 191.154 173.748 191.247 173.728C191.34 173.707 191.432 173.685 191.524 173.662C191.616 173.639 191.708 173.614 191.799 173.589C191.891 173.564 191.982 173.538 192.072 173.51C192.163 173.482 192.254 173.454 192.343 173.424C192.434 173.394 192.523 173.362 192.612 173.33C192.701 173.298 192.791 173.265 192.879 173.231C192.968 173.197 193.056 173.161 193.143 173.125C193.23 173.088 193.318 173.05 193.404 173.012C193.491 172.973 193.577 172.933 193.662 172.892C193.748 172.851 193.833 172.809 193.918 172.766C194.003 172.723 194.087 172.679 194.17 172.634C194.253 172.589 194.336 172.543 194.419 172.496C194.501 172.448 194.583 172.401 194.664 172.352C194.746 172.303 194.827 172.252 194.906 172.2C194.986 172.149 195.065 172.097 195.144 172.045C195.222 171.992 195.3 171.938 195.378 171.882C195.455 171.827 195.531 171.771 195.607 171.714C195.683 171.657 195.757 171.599 195.832 171.54C195.907 171.481 195.981 171.422 196.053 171.361C196.126 171.3 196.198 171.238 196.27 171.175C196.341 171.113 196.412 171.05 196.482 170.986C196.552 170.922 196.621 170.856 196.689 170.79C196.757 170.724 196.824 170.657 196.89 170.59C196.956 170.522 197.022 170.453 197.088 170.384C197.152 170.314 197.216 170.244 197.278 170.173C197.342 170.103 197.404 170.031 197.465 169.959C197.527 169.886 197.587 169.813 197.646 169.74C197.706 169.665 197.764 169.59 197.822 169.515C197.88 169.44 197.936 169.364 197.992 169.287C198.047 169.21 198.102 169.132 198.156 169.055C198.209 168.976 198.262 168.897 198.314 168.818C198.366 168.738 198.417 168.658 198.467 168.578C198.516 168.496 198.565 168.415 198.612 168.333C198.661 168.251 198.708 168.168 198.753 168.085C198.799 168.001 198.844 167.918 198.888 167.834L233.117 101.67C233.162 101.583 233.206 101.496 233.249 101.408C233.291 101.32 233.332 101.232 233.372 101.143C233.413 101.054 233.452 100.965 233.491 100.875C233.528 100.785 233.565 100.695 233.601 100.604C233.637 100.513 233.671 100.422 233.704 100.33C233.738 100.239 233.77 100.147 233.801 100.054C233.832 99.9618 233.862 99.8689 233.891 99.7755C233.92 99.6823 233.947 99.5887 233.973 99.4947C234 99.4007 234.025 99.3065 234.048 99.2119C234.072 99.1173 234.095 99.0224 234.117 98.9272C234.138 98.832 234.158 98.7366 234.177 98.6409C234.196 98.5452 234.213 98.4492 234.229 98.3531C234.246 98.2569 234.262 98.1605 234.275 98.064C234.289 97.9675 234.302 97.8708 234.314 97.7739C234.326 97.6771 234.336 97.5801 234.345 97.4829C234.354 97.3858 234.362 97.2885 234.368 97.1912C234.375 97.0938 234.38 96.9964 234.384 96.899C234.388 96.8015 234.392 96.704 234.393 96.6065C234.394 96.5089 234.394 96.4113 234.393 96.3138C234.392 96.2162 234.39 96.1187 234.387 96.0212C234.384 95.9237 234.379 95.8263 234.373 95.7289C234.367 95.6315 234.36 95.5342 234.352 95.437C234.344 95.3398 234.334 95.2427 234.322 95.1458C234.311 95.0488 234.299 94.952 234.286 94.8554C234.272 94.7588 234.258 94.6623 234.242 94.5661C234.226 94.4698 234.209 94.3738 234.19 94.278C234.173 94.1821 234.153 94.0865 234.133 93.9912C234.111 93.8959 234.089 93.8009 234.066 93.7061C234.043 93.6114 234.019 93.5169 233.993 93.4227C233.967 93.3286 233.94 93.2348 233.912 93.1415C233.885 93.048 233.856 92.9549 233.825 92.8622C233.795 92.7695 233.763 92.6772 233.73 92.5853C233.697 92.4935 233.663 92.402 233.628 92.3111C233.593 92.22 233.556 92.1294 233.519 92.0393C233.481 91.9492 233.443 91.8597 233.403 91.7707C233.364 91.6816 233.323 91.593 233.281 91.505C233.239 91.4169 233.196 91.3294 233.151 91.2425C233.107 91.1556 233.062 91.0692 233.015 90.9834C232.969 90.8976 232.921 90.8125 232.873 90.7279C232.824 90.6433 232.774 90.5594 232.724 90.4762C232.673 90.3928 232.621 90.3102 232.568 90.2282C232.515 90.1463 232.461 90.0651 232.405 89.9846C232.351 89.904 232.295 89.8241 232.237 89.7449C232.18 89.6659 232.122 89.5875 232.063 89.5099C232.004 89.4321 231.944 89.3553 231.883 89.2792C231.822 89.2031 231.76 89.1278 231.697 89.0533C231.634 88.9788 231.57 88.9051 231.505 88.8322C231.44 88.7593 231.374 88.6873 231.308 88.6161C231.241 88.5449 231.173 88.4746 231.105 88.4052C231.036 88.3357 230.967 88.2671 230.897 88.1994C230.826 88.1318 230.755 88.065 230.683 87.9991C230.612 87.9333 230.539 87.8684 230.464 87.8044C230.391 87.7404 230.317 87.6774 230.241 87.6154C230.166 87.5533 230.09 87.4922 230.013 87.432C229.937 87.3719 229.859 87.3128 229.781 87.2546C229.703 87.1965 229.623 87.1394 229.543 87.0833C229.463 87.0272 229.383 86.9721 229.302 86.918C229.221 86.864 229.139 86.811 229.057 86.7591C228.973 86.7071 228.89 86.6562 228.807 86.6063C228.723 86.5565 228.638 86.5078 228.553 86.4602C228.468 86.4126 228.382 86.366 228.296 86.3205C228.21 86.2751 228.123 86.2308 228.036 86.1875C227.948 86.1443 227.86 86.1023 227.771 86.0613C227.682 86.0203 227.593 85.9805 227.504 85.9418L165.217 59.0389L159.683 56.1916C160.287 55.147 160.865 54.1512 161.413 53.2067C165.133 46.7894 162.81 38.8669 156.2 35.4991L144.618 29.5976C138.008 26.2297 130.232 29.0059 127.227 35.7885C126.803 36.7449 126.358 37.7507 125.89 38.8037L119.823 35.6816L119.823 35.6816Z" id="Rectangle-2-Union" fill="url(#gradient_2)" fill-rule="evenodd" stroke="none" />
      </g>
    </g>
  </g>
</svg>