<?xml version="1.0" encoding="utf-8"?>
<svg width="127px" height="14px" viewbox="0 0 127 14" version="1.1" xmlns:xlink="http://www.w3.org/1999/xlink" xmlns="http://www.w3.org/2000/svg">
  <path d="M120.448 13.7478C119.451 13.7478 118.48 13.6257 117.535 13.3815C116.59 13.1374 115.814 12.8087 115.206 12.3955L116.512 9.16519C117.085 9.52829 117.727 9.8194 118.437 10.0385C119.147 10.2576 119.829 10.3672 120.482 10.3672C121.044 10.3672 121.444 10.3077 121.685 10.1888C121.926 10.0698 122.046 9.89139 122.046 9.6535C122.046 9.37804 121.888 9.17145 121.573 9.03372C121.258 8.89599 120.74 8.74574 120.018 8.58297C119.09 8.37012 118.317 8.14162 117.698 7.89746C117.08 7.65331 116.541 7.25264 116.083 6.69547C115.625 6.1383 115.395 5.38392 115.395 4.43234C115.395 3.60598 115.607 2.85473 116.031 2.17861C116.455 1.50249 117.088 0.970358 117.93 0.582215C118.772 0.194072 119.795 8.95554e-07 120.998 0C121.823 8.95554e-07 122.633 0.0970371 123.429 0.291109C124.226 0.485179 124.927 0.770026 125.534 1.14565L124.314 4.35722C123.134 3.70614 122.017 3.3806 120.963 3.3806C119.921 3.3806 119.399 3.65606 119.399 4.20697C119.399 4.46991 119.554 4.66711 119.863 4.79858C120.173 4.93004 120.683 5.0709 121.393 5.22115C122.309 5.40896 123.083 5.62495 123.713 5.8691C124.343 6.11326 124.89 6.51079 125.354 7.0617C125.818 7.61262 126.05 8.36386 126.05 9.31544C126.05 10.1418 125.838 10.8899 125.414 11.5598C124.99 12.2296 124.357 12.7618 123.515 13.1562C122.673 13.5506 121.651 13.7478 120.448 13.7478L120.448 13.7478ZM115.31 0.300503L110.223 13.4473L106.236 13.4473L101.149 0.300503L105.514 0.300503L108.384 7.98198L111.323 0.300503L115.31 0.300503ZM100.892 10.1042L100.892 13.4473L90.89 13.4473L90.89 0.300503L100.668 0.300503L100.668 3.64354L94.8769 3.64354L94.8769 5.18359L99.9636 5.18359L99.9636 8.37639L94.8769 8.37639L94.8769 10.1042L100.892 10.1042ZM76.6954 0.300503L82.6242 0.300503C83.9646 0.300503 85.1475 0.566569 86.1728 1.0987C87.1982 1.63083 87.9944 2.39147 88.5615 3.38061C89.1286 4.36975 89.4121 5.53418 89.4121 6.8739C89.4121 8.21362 89.1286 9.37805 88.5615 10.3672C87.9944 11.3563 87.1982 12.117 86.1728 12.6491C85.1475 13.1812 83.9646 13.4473 82.6242 13.4473L76.6954 13.4473L76.6954 0.300503ZM82.4524 9.99156C83.3231 9.99156 84.019 9.71924 84.5403 9.17458C85.0616 8.62993 85.3222 7.86304 85.3222 6.8739C85.3222 5.88476 85.0616 5.11786 84.5403 4.57321C84.019 4.02856 83.3231 3.75623 82.4524 3.75623L80.7511 3.75623L80.7511 9.99156L82.4524 9.99156ZM63.2742 13.7478C61.9796 13.7478 60.8168 13.4535 59.7857 12.8651C58.7547 12.2766 57.947 11.4596 57.3627 10.4141C56.7784 9.36865 56.4863 8.18857 56.4863 6.87389C56.4863 5.55921 56.7784 4.37913 57.3627 3.33365C57.947 2.28817 58.7547 1.47119 59.7857 0.882712C60.8168 0.294237 61.9796 0 63.2742 0C64.5688 8.95554e-07 65.7317 0.294238 66.7627 0.882712C67.7938 1.47119 68.6015 2.28817 69.1858 3.33365C69.7701 4.37913 70.0622 5.55921 70.0622 6.87389C70.0622 8.18857 69.7701 9.36865 69.1858 10.4141C68.6015 11.4596 67.7938 12.2766 66.7627 12.8651C65.7317 13.4535 64.5688 13.7478 63.2742 13.7478L63.2742 13.7478ZM63.2742 10.1606C63.7783 10.1606 64.2337 10.026 64.6404 9.75679C65.0471 9.4876 65.3707 9.10572 65.6113 8.61115C65.8519 8.11658 65.9722 7.53749 65.9722 6.87389C65.9722 6.21029 65.8519 5.63121 65.6113 5.13664C65.3707 4.64207 65.0471 4.26019 64.6404 3.99099C64.2337 3.7218 63.7783 3.5872 63.2742 3.5872C62.7701 3.5872 62.3147 3.7218 61.908 3.99099C61.5013 4.26019 61.1776 4.64207 60.937 5.13664C60.6965 5.63121 60.5762 6.21029 60.5762 6.87389C60.5762 7.53749 60.6965 8.11658 60.937 8.61115C61.1776 9.10572 61.5013 9.4876 61.908 9.75679C62.3147 10.026 62.7701 10.1606 63.2742 10.1606L63.2742 10.1606ZM50.9528 0.300503L55.0084 0.300503L55.0084 13.4473L50.9528 13.4473L50.9528 0.300503ZM36.7581 0.300503L42.6868 0.300503C44.0273 0.300503 45.2101 0.566569 46.2355 1.0987C47.2608 1.63083 48.0571 2.39147 48.6242 3.38061C49.1913 4.36975 49.4748 5.53418 49.4748 6.8739C49.4748 8.21362 49.1913 9.37805 48.6242 10.3672C48.0571 11.3563 47.2608 12.117 46.2355 12.6491C45.2101 13.1812 44.0273 13.4473 42.6868 13.4473L36.7581 13.4473L36.7581 0.300503ZM42.515 9.99156C43.3857 9.99156 44.0817 9.71924 44.603 9.17458C45.1242 8.62993 45.3849 7.86304 45.3849 6.8739C45.3849 5.88476 45.1242 5.11786 44.603 4.57321C44.0817 4.02856 43.3857 3.75623 42.515 3.75623L40.8137 3.75623L40.8137 9.99156L42.515 9.99156ZM29.0422 13.7478C27.1977 13.7478 25.7599 13.2031 24.7288 12.1138C23.6977 11.0245 23.1822 9.49699 23.1822 7.53123L23.1822 0.300503L27.2378 0.300503L27.2378 7.39977C27.2378 8.36386 27.3953 9.06503 27.7104 9.50325C28.0254 9.94148 28.4808 10.1606 29.0766 10.1606C29.6723 10.1606 30.1277 9.94148 30.4427 9.50325C30.7578 9.06503 30.9153 8.36386 30.9153 7.39977L30.9153 0.300503L34.9022 0.300503L34.9022 7.53123C34.9022 9.49699 34.3866 11.0245 33.3556 12.1138C32.3245 13.2031 30.8867 13.7478 29.0422 13.7478L29.0422 13.7478ZM14.6586 3.73745L11.1357 3.73745L11.1357 0.300503L22.237 0.300503L22.237 3.73745L18.7141 3.73745L18.7141 13.4473L14.6586 13.4473L14.6586 3.73745ZM5.24134 13.7478C4.24463 13.7478 3.27369 13.6257 2.32853 13.3815C1.38337 13.1374 0.607194 12.8087 0 12.3955L1.30604 9.16519C1.87886 9.52829 2.52043 9.8194 3.23073 10.0385C3.94103 10.2576 4.62269 10.3672 5.27571 10.3672C5.83708 10.3672 6.23806 10.3077 6.47864 10.1888C6.71923 10.0698 6.83952 9.89139 6.83952 9.6535C6.83952 9.37804 6.682 9.17145 6.36694 9.03372C6.05189 8.89599 5.53348 8.74574 4.81172 8.58297C3.88375 8.37012 3.11044 8.14162 2.49179 7.89746C1.87314 7.65331 1.33468 7.25264 0.876421 6.69547C0.418162 6.1383 0.189032 5.38392 0.189032 4.43234C0.189032 3.60598 0.400977 2.85473 0.824867 2.17861C1.24876 1.50249 1.88173 0.970358 2.72378 0.582215C3.56583 0.194072 4.58832 8.95554e-07 5.79125 0C6.61612 8.95554e-07 7.42667 0.0970371 8.22289 0.291109C9.01912 0.485179 9.72083 0.770026 10.328 1.14565L9.10791 4.35722C7.92789 3.70614 6.81088 3.3806 5.75689 3.3806C4.71434 3.3806 4.19307 3.65606 4.19307 4.20697C4.19307 4.46991 4.34774 4.66711 4.65706 4.79858C4.96639 4.93004 5.4762 5.0709 6.1865 5.22115C7.10302 5.40896 7.87634 5.62495 8.50644 5.8691C9.13655 6.11326 9.6836 6.51079 10.1476 7.0617C10.6116 7.61262 10.8436 8.36386 10.8436 9.31544C10.8436 10.1418 10.6316 10.8899 10.2077 11.5598C9.78384 12.2296 9.15087 12.7618 8.30882 13.1562C7.46677 13.5506 6.44427 13.7478 5.24134 13.7478L5.24134 13.7478Z" id="STUDIO-DEVS" fill="#EDF0F1" stroke="none" />
</svg>